# This file uses centimeters as units for non-parametric coordinates.

mtllib 3DPlatformSolidHalf.mtl
g default
v -9.999997 0.000000 -0.000001
v -9.659256 0.000000 2.588189
v -8.660252 0.000000 4.999998
v -7.071066 0.000000 7.071066
v -5.000000 0.000000 8.660252
v -2.588190 0.000000 9.659256
v -0.000000 0.000000 9.999998
v 2.588190 0.000000 9.659257
v 4.999999 0.000000 8.660254
v 7.071067 0.000000 7.071068
v 8.660254 0.000000 5.000000
v 9.659258 0.000000 2.588191
v 10.000000 0.000000 0.000000
v -9.999997 1.000000 -0.000001
v -9.659256 1.000000 2.588189
v -8.660252 1.000000 4.999998
v -7.071066 1.000000 7.071066
v -5.000000 1.000000 8.660252
v -2.588190 1.000000 9.659256
v -0.000000 1.000000 9.999998
v 2.588190 1.000000 9.659257
v 4.999999 1.000000 8.660254
v 7.071067 1.000000 7.071068
v 8.660254 1.000000 5.000000
v 9.659258 1.000000 2.588191
v 10.000000 1.000000 0.000000
v 0.000000 0.000000 0.000000
v 0.000000 1.000000 0.000000
vt 0.343750 0.156250
vt 0.349074 0.196690
vt 0.364684 0.234375
vt 0.389515 0.266735
vt 0.421875 0.291566
vt 0.459560 0.307176
vt 0.500000 0.312500
vt 0.540440 0.307176
vt 0.578125 0.291566
vt 0.610485 0.266735
vt 0.635316 0.234375
vt 0.650926 0.196690
vt 0.635417 0.234375
vt 0.489583 0.312500
vt 0.500000 0.312500
vt 0.510417 0.312500
vt 0.520833 0.312500
vt 0.531250 0.312500
vt 0.541667 0.312500
vt 0.552083 0.312500
vt 0.562500 0.312500
vt 0.572917 0.312500
vt 0.583333 0.312500
vt 0.593750 0.312500
vt 0.604167 0.312500
vt 0.489583 0.688440
vt 0.500000 0.688440
vt 0.510417 0.688440
vt 0.520833 0.688440
vt 0.531250 0.688440
vt 0.541667 0.688440
vt 0.552083 0.688440
vt 0.562500 0.688440
vt 0.572917 0.688440
vt 0.583333 0.688440
vt 0.593750 0.688440
vt 0.604167 0.688440
vt 0.635417 0.766095
vt 0.650926 0.803310
vt 0.635316 0.765625
vt 0.610485 0.733265
vt 0.578125 0.708434
vt 0.540440 0.692824
vt 0.500000 0.687500
vt 0.459560 0.692824
vt 0.421875 0.708434
vt 0.389515 0.733265
vt 0.364684 0.765625
vt 0.349074 0.803310
vt 0.343750 0.843750
vt 0.500000 0.150000
vt 0.500000 0.837500
vn -0.991445 0.000000 0.130526
vn -0.965926 0.000000 0.258819
vn -0.965926 0.000000 0.258819
vn -0.991445 0.000000 0.130526
vn -0.866025 0.000000 0.500000
vn -0.866025 0.000000 0.500000
vn -0.707107 0.000000 0.707107
vn -0.707107 0.000000 0.707107
vn -0.500000 0.000000 0.866025
vn -0.500000 0.000000 0.866025
vn -0.258819 0.000000 0.965926
vn -0.258819 0.000000 0.965926
vn -0.000000 0.000000 1.000000
vn -0.000000 0.000000 1.000000
vn 0.258819 0.000000 0.965926
vn 0.258819 0.000000 0.965926
vn 0.500000 0.000000 0.866026
vn 0.500000 0.000000 0.866026
vn 0.707107 0.000000 0.707107
vn 0.707107 0.000000 0.707107
vn 0.866025 0.000000 0.500000
vn 0.866025 0.000000 0.500000
vn 0.965926 0.000000 0.258819
vn 0.965926 0.000000 0.258819
vn 0.991445 0.000000 0.130526
vn 0.991445 0.000000 0.130526
vn 0.000000 -1.000000 0.000000
vn 0.000000 -1.000000 0.000000
vn 0.000000 -1.000000 0.000000
vn 0.000000 -1.000000 0.000000
vn 0.000000 -1.000000 0.000000
vn 0.000000 -1.000000 0.000000
vn 0.000000 -1.000000 0.000000
vn 0.000000 -1.000000 0.000000
vn 0.000000 -1.000000 0.000000
vn 0.000000 -1.000000 0.000000
vn 0.000000 -1.000000 0.000000
vn 0.000000 -1.000000 0.000000
vn 0.000000 -1.000000 0.000000
vn 0.000000 -1.000000 0.000000
vn 0.000000 1.000000 0.000000
vn 0.000000 1.000000 0.000000
vn 0.000000 1.000000 0.000000
vn 0.000000 1.000000 0.000000
vn 0.000000 1.000000 0.000000
vn 0.000000 1.000000 0.000000
vn 0.000000 1.000000 0.000000
vn 0.000000 1.000000 0.000000
vn 0.000000 1.000000 0.000000
vn 0.000000 1.000000 0.000000
vn 0.000000 1.000000 0.000000
vn 0.000000 1.000000 0.000000
vn 0.000000 1.000000 0.000000
vn 0.000000 1.000000 0.000000
vn 0.000000 0.000000 -1.000000
vn 0.000000 0.000000 -1.000000
vn 0.000000 0.000000 -1.000000
vn 0.000000 0.000000 -1.000000
vn 0.000000 0.000000 -1.000000
vn 0.000000 0.000000 -1.000000
vn 0.000000 0.000000 -1.000000
vn 0.000000 0.000000 -1.000000
s 1
g pCylinder1
usemtl initialShadingGroup
f 1/14/1 2/15/2 15/27/3 14/26/4
f 2/15/2 3/16/5 16/28/6 15/27/3
f 3/16/5 4/17/7 17/29/8 16/28/6
f 4/17/7 5/18/9 18/30/10 17/29/8
f 5/18/9 6/19/11 19/31/12 18/30/10
f 6/19/11 7/20/13 20/32/14 19/31/12
f 7/20/13 8/21/15 21/33/16 20/32/14
f 8/21/15 9/22/17 22/34/18 21/33/16
f 9/22/17 10/23/19 23/35/20 22/34/18
f 10/23/19 11/24/21 24/36/22 23/35/20
f 11/24/21 12/25/23 25/37/24 24/36/22
f 12/25/23 13/13/25 26/38/26 25/37/24
s 2
f 2/2/27 1/1/28 27/51/29
f 3/3/30 2/2/27 27/51/29
f 4/4/31 3/3/30 27/51/29
f 5/5/32 4/4/31 27/51/29
f 6/6/33 5/5/32 27/51/29
f 7/7/34 6/6/33 27/51/29
f 8/8/35 7/7/34 27/51/29
f 9/9/36 8/8/35 27/51/29
f 10/10/37 9/9/36 27/51/29
f 11/11/38 10/10/37 27/51/29
f 12/12/39 11/11/38 27/51/29
f 13/13/40 12/12/39 27/51/29
s 3
f 14/50/41 15/49/42 28/52/43
f 15/49/42 16/48/44 28/52/43
f 16/48/44 17/47/45 28/52/43
f 17/47/45 18/46/46 28/52/43
f 18/46/46 19/45/47 28/52/43
f 19/45/47 20/44/48 28/52/43
f 20/44/48 21/43/49 28/52/43
f 21/43/49 22/42/50 28/52/43
f 22/42/50 23/41/51 28/52/43
f 23/41/51 24/40/52 28/52/43
f 24/40/52 25/39/53 28/52/43
f 25/39/53 26/38/54 28/52/43
s off
f 13/13/55 27/51/56 28/52/57 26/38/58
f 14/50/59 28/52/60 27/51/61 1/14/62
